METRIC,LZ
M48
T1F00S00C0.600
T2F00S00C0.850
T3F00S00C0.950
T4F00S00C1.000
T5F00S00C1.300
T6F00S00C1.500
T7F00S00C3.200
T8F00S00C3.500
%
T01
X009115Y000505
X00875Y0005
X009Y00125
X009Y00175
X00838Y001265
X00804Y00126
X008Y00075
X00751Y00075
X007Y00075
Y00017
X006495Y00055
X0065Y0009
X0065Y001085
X00624Y001275
X00609Y00166
X005945Y00177
X006535Y00155
X00708Y00177
X0072Y001265
X00774Y001765
X008Y00025
X005905Y000635
X005725Y001005
X005505Y001
X005345Y00127
X0055Y00025
X004735Y00048
X00454Y000665
X004845Y000915
X004995Y001075
X004385Y00117
X0045Y001655
X004
X003505
X003
X003175Y0014
X003785Y001295
X00398Y000865
X004115Y000485
X00349Y000475
X003355Y000765
X0035Y000915
X002685Y001065
X00257Y00118
X002475Y00133
X00233Y001425
X002Y00125
Y00175
X001405Y00146
X00291Y000465
X005125Y00166
X00111Y00153
X000285Y00149
X00039Y0017
X000465Y001285
X000885Y000595
Y00025
X00111Y001785
X000545Y00196
X000465Y00209
X00036Y00199
X000365Y002525
X00019Y00253
X000885Y002645
X000875Y003115
X002Y00325
Y00275
Y00225
X00215Y0019
X00228Y00202
X002855Y002355
X0034Y002165
X003495Y0024842
X003845Y002595
X003975Y00222
X00428Y002365
X004285Y00311
X004255Y003265
X00403Y002995
X003545Y003
X0036Y003505
X00363Y00401
X003845Y00421
X003905Y004345
X004125Y004315
X004285Y004505
X00444Y004445
X00488Y004555
X0049Y004695
X00508Y004715
X004765Y004915
X00488Y00504
X00472Y00521
X00457Y00542
X00426
X00479Y00559
X004995Y004145
X004005Y00375
X003365Y004205
X00304Y00432
X003125Y004505
X00281Y004835
X00282Y00499
X002455Y0055
X002Y00525
Y00475
Y00425
Y00375
X004875Y002695
X00594Y002735
X00649Y002625
X0065Y00207
X0062Y002055
X00725
X007595Y00204
X007545Y002755
X00633Y00338
X005505
X00536Y00417
X00573Y004215
X00598Y004285
X00609Y00413
X00621Y00438
X006495Y004695
X00675Y004755
X006925Y0053
X0074Y00531
X0075Y004755
X00788Y00446
X008135Y004595
X00812Y004835
X008245Y005135
Y0053
X008445Y005135
X008525Y004805
X00893Y00497
X00871Y00439
X00882Y00567
X008Y005665
X006365Y005445
X006295Y00529
X0061592Y0051458
X00586Y00517
X005895Y00569
X00525Y005205
X005475Y004595
X008595Y001865
X009635Y00205
X00964Y002745
X01014Y002865
X0102099Y003305
X010605Y003315
X010615Y003665
X010205Y00389
X010035Y004175
X010045Y004205
X009855Y004255
X009985Y004635
X010035Y004855
X009895Y00487
X0097Y00478
X00925
X00975Y00525
X01025
X0107499Y00525
X0112499
X0108999Y00461
X01096Y004275
X0107899Y00415
X010615Y004385
X011565Y0041
X01209Y00409
X012135Y00328
X01122Y00338
X010645Y002085
X009645Y00385
X0120999Y005
X012Y0055
X01125Y00575
Y00625
X0107499Y00625
X01025Y00625
Y00575
X0107499Y00575
X00975Y00575
Y00625
X00925Y00625
Y00575
X00825
X00825Y00625
X00775Y00625
X00725Y006
X007425Y00575
X00675Y00575
X006425Y00591
X0065Y006365
X00575Y00636
X005695Y00609
X005535Y00605
X00525Y00575
X00525Y00636
X00875Y00625
X00475Y00636
X00445Y00622
X00457Y0061
X00446Y00598
X00475Y00575
X004Y00625
X0035
X003
X00275Y005795
T02
X0093392Y0050711
X0093392Y0053211
X0115392Y0054411
Y0051911
T03
X0058Y00031
X006054
X006308
X006562
X006816
X00044Y002746
X000186
Y003
X00044
X0012495Y0030012
X0015035
T04
X0015509Y0011592
Y0016672
X001114Y00108
X00086Y00133
X000606Y00108
X0009Y00399
Y004244
X001126Y00424
X00138
X0030591Y0040082
Y0037542
Y0035002
Y0032462
Y0029922
Y0027382
Y0024842
Y0022302
X0045831
Y0024842
Y0027382
Y0029922
Y0032462
Y0035002
Y0037542
Y0040082
X0015509Y0021752
Y0019212
X0051791Y0022302
Y0024842
Y0027382
Y0029922
Y0032462
Y0035002
Y0037542
Y0040082
X0067031
Y0037542
Y0035002
Y0032462
Y0029922
Y0027382
Y0024842
Y0022302
X0072991
Y0024842
Y0027382
Y0029922
Y0032462
Y0035002
Y0037542
Y0040082
X0088231
Y0037542
Y0035002
Y0032462
Y0029922
Y0027382
Y0024842
Y0022302
X0094091
Y0024842
Y0027382
Y0029922
Y0032462
Y0035002
Y0037542
Y0040082
X0109331
Y0037542
Y0035002
Y0032462
Y0029922
Y0027382
Y0024842
Y0022302
X0071752Y0062191
X0069212
X0066672
X0061592
T05
X0095102Y000219
X0093802Y000849
X0095102Y001469
X0107602
Y000219
T06
X011648Y0025966
Y0028736
Y0031506
Y0034276
X011648Y0037046
X011932Y0035661
Y0032891
Y0030121
X011932Y0027351
T07
X01179Y0019011
Y0044001
T08
X01175Y0005
X00225
X0015Y0005
X00025
X00125Y00362
Y00487
X01175Y006
X00225
M30
