%FSLAX43Y43*%
%MOMM*%
G71*
G01*
G75*
%ADD10C,0.300*%
%ADD11R,1.600X1.800*%
%ADD12R,1.800X1.600*%
%ADD13R,1.600X0.300*%
%ADD14C,1.000*%
%ADD15C,0.500*%
%ADD16C,0.400*%
%ADD17C,0.600*%
%ADD18C,1.500*%
%ADD19R,1.400X1.400*%
%ADD20C,2.000*%
%ADD21R,1.500X1.500*%
%ADD22C,4.000*%
%ADD23C,5.000*%
%ADD24C,1.400*%
%ADD25C,4.760*%
%ADD26R,2.000X2.000*%
%ADD27C,1.100*%
%ADD28C,0.125*%
%ADD29R,4.000X3.000*%
%ADD30R,0.850X1.300*%
%ADD31R,1.300X0.850*%
%ADD32R,1.500X3.000*%
%ADD33R,12.200X9.300*%
%ADD34R,1.803X2.003*%
%ADD35R,2.003X1.803*%
%ADD36R,1.803X0.503*%
%ADD37C,1.703*%
%ADD38R,1.603X1.603*%
%ADD39C,2.203*%
%ADD40R,1.703X1.703*%
%ADD41C,4.203*%
%ADD42C,5.203*%
%ADD43C,1.603*%
%ADD44C,4.963*%
%ADD45R,2.203X2.203*%
%ADD46C,1.303*%
D34*
X41301Y54093D02*
D03*
X8188Y15293D02*
D03*
X5388Y15293D02*
D03*
X15188Y27193D02*
D03*
X38501Y54093D02*
D03*
X12388Y27193D02*
D03*
D35*
X2893Y13912D02*
D03*
X10207Y23388D02*
D03*
X12707D02*
D03*
Y20588D02*
D03*
X10207D02*
D03*
X2893Y11112D02*
D03*
D36*
X1943Y23516D02*
D03*
Y22866D02*
D03*
Y22216D02*
D03*
Y21566D02*
D03*
Y20916D02*
D03*
Y20266D02*
D03*
Y19616D02*
D03*
X1943Y18966D02*
D03*
X1943Y18316D02*
D03*
Y17666D02*
D03*
X7443Y23516D02*
D03*
Y20916D02*
D03*
Y20266D02*
D03*
Y19616D02*
D03*
Y18966D02*
D03*
Y18316D02*
D03*
X7443Y17666D02*
D03*
X7443Y22216D02*
D03*
X7443Y21566D02*
D03*
X7443Y22866D02*
D03*
D37*
X1860Y27460D02*
D03*
Y30000D02*
D03*
X4400Y27460D02*
D03*
X63080Y3100D02*
D03*
X69212Y62191D02*
D03*
X66672D02*
D03*
X94091Y37542D02*
D03*
Y35002D02*
D03*
Y32462D02*
D03*
Y29922D02*
D03*
Y27382D02*
D03*
Y24842D02*
D03*
Y22302D02*
D03*
X109331D02*
D03*
Y24842D02*
D03*
Y27382D02*
D03*
Y29922D02*
D03*
Y32462D02*
D03*
Y35002D02*
D03*
Y37542D02*
D03*
Y40082D02*
D03*
X88231D02*
D03*
Y37542D02*
D03*
Y35002D02*
D03*
Y32462D02*
D03*
Y29922D02*
D03*
Y27382D02*
D03*
Y24842D02*
D03*
Y22302D02*
D03*
X72991D02*
D03*
Y24842D02*
D03*
Y27382D02*
D03*
Y29922D02*
D03*
Y32462D02*
D03*
Y35002D02*
D03*
Y37542D02*
D03*
X30591D02*
D03*
Y35002D02*
D03*
Y32462D02*
D03*
Y29922D02*
D03*
Y27382D02*
D03*
Y24842D02*
D03*
Y22302D02*
D03*
X45831D02*
D03*
Y24842D02*
D03*
Y27382D02*
D03*
Y29922D02*
D03*
Y32462D02*
D03*
Y35002D02*
D03*
Y37542D02*
D03*
Y40082D02*
D03*
X67031D02*
D03*
Y37542D02*
D03*
Y35002D02*
D03*
Y32462D02*
D03*
Y29922D02*
D03*
Y27382D02*
D03*
Y24842D02*
D03*
Y22302D02*
D03*
X51791D02*
D03*
Y24842D02*
D03*
Y27382D02*
D03*
Y29922D02*
D03*
Y32462D02*
D03*
Y35002D02*
D03*
Y37542D02*
D03*
X11260Y42400D02*
D03*
X9000Y42440D02*
D03*
X60540Y3100D02*
D03*
X65620D02*
D03*
X68160D02*
D03*
X15509Y21752D02*
D03*
Y19212D02*
D03*
Y16672D02*
D03*
X6060Y10800D02*
D03*
X8600Y13300D02*
D03*
X15035Y30012D02*
D03*
X71752Y62191D02*
D03*
D38*
X93392Y50711D02*
D03*
X115392Y51911D02*
D03*
D39*
X116480Y34276D02*
D03*
X119320Y32891D02*
D03*
X116480Y31506D02*
D03*
X119320Y30121D02*
D03*
X116480Y28736D02*
D03*
X119320Y35661D02*
D03*
X116480Y37046D02*
D03*
X119320Y27351D02*
D03*
X93802Y8490D02*
D03*
X95102Y14690D02*
D03*
Y2190D02*
D03*
X107602D02*
D03*
Y14690D02*
D03*
D40*
X61592Y62191D02*
D03*
X94091Y40082D02*
D03*
X72991D02*
D03*
X30591D02*
D03*
X51791D02*
D03*
X13800Y42400D02*
D03*
X9000Y39900D02*
D03*
X58000Y3100D02*
D03*
X4400Y30000D02*
D03*
X15509Y11592D02*
D03*
X11140Y10800D02*
D03*
X12495Y30012D02*
D03*
D41*
X2500Y5000D02*
D03*
X15000D02*
D03*
X12500Y48700D02*
D03*
Y36200D02*
D03*
D42*
X22500Y60000D02*
D03*
Y5000D02*
D03*
X117500D02*
D03*
Y60000D02*
D03*
D43*
X93392Y53211D02*
D03*
X115392Y54411D02*
D03*
D44*
X117900Y44001D02*
D03*
Y19011D02*
D03*
D45*
X116480Y25966D02*
D03*
D46*
X14050Y14600D02*
D03*
X3900Y17000D02*
D03*
X8850Y26450D02*
D03*
Y5950D02*
D03*
Y2500D02*
D03*
X4650Y12850D02*
D03*
X11100Y15300D02*
D03*
Y17850D02*
D03*
X1900Y25300D02*
D03*
X4650Y20900D02*
D03*
X2850Y14900D02*
D03*
X3650Y25250D02*
D03*
X3600Y19900D02*
D03*
X81350Y45950D02*
D03*
X50800Y47150D02*
D03*
X70800Y17700D02*
D03*
X59450D02*
D03*
X54750Y45950D02*
D03*
X49000Y46950D02*
D03*
X36300Y40100D02*
D03*
X36000Y35050D02*
D03*
X33650Y42050D02*
D03*
X38450Y42100D02*
D03*
X34950Y24842D02*
D03*
X40300Y29950D02*
D03*
X42550Y32650D02*
D03*
X31250Y45050D02*
D03*
X40050Y37500D02*
D03*
X39050Y43450D02*
D03*
X30400Y43200D02*
D03*
X42850Y45050D02*
D03*
Y31100D02*
D03*
X42800Y23650D02*
D03*
X28550Y23550D02*
D03*
X53600Y41700D02*
D03*
X41250Y43150D02*
D03*
X38450Y25950D02*
D03*
X48750Y26950D02*
D03*
X48800Y45550D02*
D03*
X28100Y48350D02*
D03*
X63300Y33800D02*
D03*
X55050D02*
D03*
X62100Y43800D02*
D03*
X44400Y44450D02*
D03*
X75450Y27550D02*
D03*
X96400Y27450D02*
D03*
X96350Y20500D02*
D03*
X75950Y20400D02*
D03*
X45400Y6650D02*
D03*
X33550Y7650D02*
D03*
X26850Y10650D02*
D03*
X49950Y10750D02*
D03*
X43850Y11700D02*
D03*
X25700Y11800D02*
D03*
X24750Y13300D02*
D03*
X37850Y12950D02*
D03*
X23300Y14250D02*
D03*
X31750Y14000D02*
D03*
X59050Y6350D02*
D03*
X65000Y9000D02*
D03*
X39800Y8650D02*
D03*
X57250Y10050D02*
D03*
X28200Y49900D02*
D03*
X64950Y46950D02*
D03*
X22800Y20200D02*
D03*
X62000Y20550D02*
D03*
X60900Y41300D02*
D03*
X98550Y42550D02*
D03*
X21500Y19000D02*
D03*
X85950Y18650D02*
D03*
X44500Y62200D02*
D03*
X101400Y28650D02*
D03*
X106150Y36650D02*
D03*
Y43850D02*
D03*
X87100Y43900D02*
D03*
X89300Y49700D02*
D03*
X102050Y38900D02*
D03*
X78800Y44600D02*
D03*
X81200Y48350D02*
D03*
X98950Y48700D02*
D03*
X45700Y54200D02*
D03*
X44600Y59800D02*
D03*
X47200Y52100D02*
D03*
X100350Y48550D02*
D03*
X82450Y51350D02*
D03*
X84450D02*
D03*
X83800Y12650D02*
D03*
X53450Y12700D02*
D03*
X62400Y12750D02*
D03*
X72000Y12650D02*
D03*
X80400Y12600D02*
D03*
X42600Y54200D02*
D03*
X61592Y51458D02*
D03*
X47650Y49150D02*
D03*
X48800Y50400D02*
D03*
X47900Y55900D02*
D03*
X63650Y54450D02*
D03*
X77400Y17650D02*
D03*
X106450Y20850D02*
D03*
X45700Y61000D02*
D03*
X55350Y60500D02*
D03*
X59800Y42850D02*
D03*
X109600Y42750D02*
D03*
X99850Y46350D02*
D03*
X39750Y22200D02*
D03*
X5450Y19600D02*
D03*
X59400Y27350D02*
D03*
X64900Y26250D02*
D03*
X57300Y42150D02*
D03*
X20000Y12500D02*
D03*
Y17500D02*
D03*
X20000Y22500D02*
D03*
Y27500D02*
D03*
Y32500D02*
D03*
Y37500D02*
D03*
Y42500D02*
D03*
Y47500D02*
D03*
Y52500D02*
D03*
X24550Y55000D02*
D03*
X27500Y57950D02*
D03*
X30000Y62500D02*
D03*
X35000D02*
D03*
X40000D02*
D03*
X47500Y57500D02*
D03*
X52500Y57500D02*
D03*
X47500Y63600D02*
D03*
X52500Y63600D02*
D03*
X56950Y60900D02*
D03*
X57500Y63600D02*
D03*
X65000Y63650D02*
D03*
X64250Y59100D02*
D03*
X58950Y56900D02*
D03*
X58600Y51700D02*
D03*
X52500Y52050D02*
D03*
X62950Y52900D02*
D03*
X69250Y53000D02*
D03*
X67500Y57500D02*
D03*
X72500Y60000D02*
D03*
X77500Y62500D02*
D03*
X82500Y62500D02*
D03*
X87500D02*
D03*
X92500D02*
D03*
X97500Y62500D02*
D03*
X102500D02*
D03*
X107499Y62500D02*
D03*
X112500Y62500D02*
D03*
X49950Y41450D02*
D03*
X67500Y47550D02*
D03*
X75000D02*
D03*
X74000Y53100D02*
D03*
X120000Y55000D02*
D03*
X107499Y57500D02*
D03*
X112500D02*
D03*
X112499Y52500D02*
D03*
X107499D02*
D03*
X102500Y52500D02*
D03*
Y57500D02*
D03*
X97500D02*
D03*
Y52500D02*
D03*
X92500Y57500D02*
D03*
X88200Y56700D02*
D03*
X82450Y53000D02*
D03*
X82500Y57500D02*
D03*
X80000Y56650D02*
D03*
X74250Y57500D02*
D03*
X85250Y48050D02*
D03*
X97000Y47800D02*
D03*
X92500D02*
D03*
X120999Y50000D02*
D03*
X120900Y40900D02*
D03*
X115650Y41000D02*
D03*
X121350Y32800D02*
D03*
X106050Y33150D02*
D03*
X102099Y33050D02*
D03*
X96450Y38500D02*
D03*
X100450Y42050D02*
D03*
X100350Y41750D02*
D03*
X107899Y41500D02*
D03*
X108999Y46100D02*
D03*
X90000Y17500D02*
D03*
X90000Y12500D02*
D03*
X91150Y5050D02*
D03*
X87500Y5000D02*
D03*
X80000Y2500D02*
D03*
X80000Y7500D02*
D03*
X75100Y7500D02*
D03*
X70000Y7500D02*
D03*
Y1700D02*
D03*
X65000Y10850D02*
D03*
X64950Y5500D02*
D03*
X55000Y2500D02*
D03*
X55050Y10000D02*
D03*
D03*
X47350Y4800D02*
D03*
X41150Y4850D02*
D03*
X34900Y4750D02*
D03*
X29100Y4650D02*
D03*
X30000Y16550D02*
D03*
X35050D02*
D03*
X40000D02*
D03*
X45000D02*
D03*
X35000Y9150D02*
D03*
X48450D02*
D03*
X60900Y16600D02*
D03*
X65350Y15500D02*
D03*
X65000Y20700D02*
D03*
X72500Y20550D02*
D03*
X51250Y16600D02*
D03*
X34000Y21650D02*
D03*
X35450Y30000D02*
D03*
X112200Y33800D02*
D03*
X8750Y31150D02*
D03*
M02*
